<?xml version="1.0" encoding="utf-8"?>
<!-- Generator: Adobe Illustrator 19.1.0, SVG Export Plug-In . SVG Version: 6.00 Build 0)  -->
<svg version="1.1" id="Calque_1" xmlns="http://www.w3.org/2000/svg" xmlns:xlink="http://www.w3.org/1999/xlink" x="0px" y="0px"
	 width="600px" height="600px" viewBox="2 120.9 600 600" style="enable-background:new 2 120.9 600 600;" xml:space="preserve">
<style type="text/css">
	.st0{fill:#00A89C;}
</style>
<path id="Page-1" class="st0" d="M179,363.9l-42,42l135,135l300-300l-42-42l-258,258L179,363.9L179,363.9z M542,420.9
	c0,132-108,240-240,240s-240-108-240-240s108-240,240-240c24,0,45,3,66,9l48-48c-36-12-75-21-114-21c-165,0-300,135-300,300
	s135,300,300,300s300-135,300-300H542L542,420.9z"/>
</svg>
